<svg width="263" height="60" xmlns="http://www.w3.org/2000/svg" xmlns:xlink="http://www.w3.org/1999/xlink"><g transform="translate(561 -1088)"><mask id="a"><use xlink:href="#path0_fill" fill="#fff" transform="translate(-561 1088)"/></mask><g mask="url(#a)"><use xlink:href="#path1_stroke_2x" transform="translate(-561 1088)" fill="url(#paint0_linear)"/></g></g><defs><linearGradient id="paint0_linear" x2="1" gradientUnits="userSpaceOnUse" gradientTransform="matrix(263 60 -263 1152.82 131.5 -576.408)"><stop offset="0" stop-color="#BC4E9C"/><stop offset="1" stop-color="#F80759"/></linearGradient><path id="path0_fill" d="M0 30C0 13.431 13.431 0 30 0h203c16.569 0 30 13.431 30 30 0 16.569-13.431 30-30 30H30C13.431 60 0 46.569 0 30z"/><path id="path1_stroke_2x" d="M30 2h203v-4H30v4zm203 56H30v4h203v-4zM30 58C14.536 58 2 45.464 2 30h-4c0 17.673 14.327 32 32 32v-4zm231-28c0 15.464-12.536 28-28 28v4c17.673 0 32-14.327 32-32h-4zM233 2c15.464 0 28 12.536 28 28h4c0-17.673-14.327-32-32-32v4zM30-2C12.327-2-2 12.327-2 30h4C2 14.536 14.536 2 30 2v-4z"/></defs></svg>