<svg height="48" viewBox="0 0 60 48" width="60" xmlns="http://www.w3.org/2000/svg" xmlns:xlink="http://www.w3.org/1999/xlink"><linearGradient id="a" x1="-30.027989%" x2="143.438694%" y1="-55.048164%" y2="164.409362%"><stop offset="0" stop-color="#314a61"/><stop offset="1" stop-color="#162432"/></linearGradient><path d="m42.8484825 46.3679983c-1.4727732 0-3.200484 1.1696091-3.200484 5.2907304.5760835 1.2305408 1.5359229 2.4612568 2.5599914 3.4452693 2.1125461-2.2147285 2.8160084-4.3063678 2.8160084-5.8443688 0-1.7220218-.639593-2.8916309-2.1755158-2.8916309zm-4.3373859 1.8042245c.5684106-2.7926907 2.7143206-4.4059235 4.8596983-4.4059235 2.461871 0 4.7335622 1.6132328 4.7335622 4.5915495 0 1.9860743-1.1361117 4.0339651-2.3980047 5.7086611-.4419198.4971809-1.0097982 1.1171116-2.0195964 2.1725833 3.1558855 2.6060051 8.0150516 4.5917261 10.7918193 4.7158889-.820328-1.5512397-1.072955-2.9168535-1.072955-4.1574214 0-6.1438489 5.8696739-9.2465049 10.792529-9.2465049 4.7965415 0 7.5733092 2.1098838 8.8357344 4.2197676 1.3882064 2.2956865 1.7667921 5.1509001 1.7667921 9.1841587 0 4.2814075.6945467 6.8882956 1.2626026 8.0043475.6306803 1.3654371 1.8932829 2.2340466 3.3446461 2.2340466 1.7041675 0 3.4079803-1.2412744 3.4079803-3.0401332 0-2.2953332-.8836622-3.2884586-2.0195965-4.0956049-.5680558-.3724882-.5680558-.5584675-.2520947-.9927722.5047217-.5584675 1.388029-1.116935 2.5243181-1.116935 2.0827532 0 4.2914651 1.8613817 4.2914651 4.9023979 0 4.7775287-5.1123253 6.639087-8.835557 6.639087-1.1992685 0-3.4711371 1.1171116-6.9428063 2.9168535-3.7232318 1.9242578-8.5197733 3.8471027-12.6849249 3.8471027-7.5734866 0-11.738993-6.3911147-11.738993-9.8659058 0-3.9096256 1.9564397-5.7095441 5.1753046-7.0122817v-.1243394c-2.5874749-.7444467-6.5636885-2.2342232-10.0979822-5.1501936-.6943694.7444468-2.0194191 2.047361-3.1555308 3.2886353 1.1987363.3724883 2.3980047 1.7372189 2.3980047 3.2886353 0 1.985721-1.1359343 3.3515114-2.3980047 5.0885537-1.830481 2.5441886-2.5244955 4.0957815-2.5244955 6.4539909 0 1.5514163.5048991 3.1017729 1.7038127 4.0957815.6943694.3714286.5680559 1.0544121-.1259586.9917125-3.4711371-.3716052-7.5734867-2.3575029-7.5734867-8.0045241 0-1.427077.4417424-2.9159704.6940145-3.7227634.1263135-.4968276 0-.8073228-.6306804-.8073228-.4424519 0-1.4520728.4346579-1.7675017.8073228-.2522721.1858026-.6312125.1858026-.6312125-.3726649 0-4.7158888 4.8600531-8.0045241 7.8894477-8.1286868 1.8297714-1.6141159 3.0293947-2.7301678 4.4807579-4.3441071-3.1558856-2.8545071-5.5538902-7.0117519-5.5538902-12.1617688 0-6.7643095 4.6705828-10.3014469 7.7627794-10.3014469 1.8934604 0 2.5874749 1.1172883 2.7767677 2.3585626.5682333.3716052.8205054.8060866.9468189 1.1160519.252627.7453298-.5048991.931309-.6940145 1.3039739-.3157837-.6209904-.9471737-.9927722-2.2090667-.9927722-1.8301262 0-5.5540676 1.9228449-5.5540676 7.3217172 0 1.0554718.0633342 2.048244.3154289 2.7926907z" fill="url(#a)" fill-rule="evenodd" transform="translate(-28.119994 -33.504)"/></svg>