<svg width="500" height="500" fill="none" xmlns="http://www.w3.org/2000/svg"><path d="M134.719 192.832h18.104c14.508 0 20.336-7.44 20.336-21.328v-6.324c0-12.028-5.58-15.128-9.3-16.616 3.72-1.488 7.688-4.96 7.688-16.616v-3.1c0-12.152-5.456-18.848-19.84-18.848h-16.988v82.832zm12.4-49.104V120.54h3.968c6.076 0 8.556 2.604 8.556 9.548v3.224c0 8.184-2.232 10.416-9.3 10.416h-3.224zm0 10.292h3.224c8.184 0 10.168 3.472 10.168 11.532v5.58c0 8.06-1.736 11.284-9.176 11.284h-4.216V154.02zM206.736 143.232h-16.228v-21.328h19.22V110h-31.992v82.832h31.993v-11.78h-19.221v-26.04h16.228v-11.78zM227.572 192.832h12.772v-70.928h12.392V110h-39.432v11.904h14.268v70.928z" fill="#231F20"/><path d="M263.081 192.832h12.772v-70.928h14.392V110h-38.432v11.904h11.268v70.928zM329.749 192.832h12.772v-37.076h2.976c7.44 0 8.68 2.356 8.68 12.4 0 6.076-.124 19.716.868 24.676h12.4c-.868-4.96-.744-18.476-.744-25.42 0-11.284-2.852-14.756-7.564-16.988 3.1-1.364 8.432-4.588 8.432-17.36v-3.1c0-14.88-7.44-19.964-20.088-19.964h-17.732v82.832zm12.772-72.292h3.596c7.316 0 8.556 3.844 8.556 10.292v2.852c0 9.052-2.48 11.532-9.176 11.532h-2.976V120.54zM157.48 290.832c2.48-17.856 6.076-40.3 7.936-57.66h.248c1.86 16.988 5.084 39.06 7.44 57.66h13.02L198.276 208H185.38c-1.86 18.724-4.34 44.268-5.332 60.388h-.248c-1.612-18.228-5.084-41.664-7.564-60.388h-12.4c-2.356 18.104-5.828 43.524-7.688 61.008h-.248c-.62-15.624-3.224-43.152-5.084-61.008h-13.64l11.408 82.832h12.896zM239.329 290.832h18.104c14.508 0 20.336-7.44 20.336-21.328v-6.324c0-12.028-5.58-15.128-9.3-16.616 3.72-1.488 7.688-4.96 7.688-16.616v-3.1c0-12.152-5.456-18.848-19.84-18.848h-16.988v82.832zm12.4-49.104V218.54h3.968c6.076 0 8.556 2.604 8.556 9.548v3.224c0 8.184-2.232 10.416-9.3 10.416h-3.224zm0 10.292h3.224c8.184 0 10.168 3.472 10.168 11.532v5.58c0 8.06-1.736 11.284-9.176 11.284h-4.216V252.02zM146.268 389.832h12.772v-70.928h13.392V307H133v11.904h13.268v70.928zM203.008 389.832v-27.9c0-1.736.124-2.604.248-3.1L219.128 307h-13.64c-3.1 13.268-6.82 28.148-8.432 37.944h-.124c-1.364-9.052-5.084-24.552-8.432-37.944h-14.136l15.5 50.716c.248 1.116.372 1.736.372 2.728v29.388h12.772zM221.202 389.832h12.772v-34.1h4.96c15.748 0 20.584-9.052 20.584-22.692v-4.836c0-14.756-6.696-21.204-19.84-21.204h-18.476v82.832zm12.772-72.292h4.712c7.068 0 8.184 4.96 8.184 11.036v3.968c0 8.184-1.364 12.772-9.424 12.772h-3.472V317.54zM293.614 340.232h-17.228v-21.328h19.22V307h-31.992v82.832h32.24l1.612-11.78h-21.08v-26.04h17.228v-11.78zM322.736 143.232h-16.228v-21.328h19.22V110h-31.992v82.832h31.903v-11.78h-19.131v-26.04h16.228v-11.78zM231.059 241.232h-16.228v-21.328h19.22V208h-31.992v82.832h31.903v-11.78h-19.131v-26.04h16.228v-11.78z" fill="#231F20"/></svg>