<svg width="889" height="365" fill="none" xmlns="http://www.w3.org/2000/svg"><path fill-rule="evenodd" clip-rule="evenodd" d="M110.72 152.683c-2.873 0-6.244 2.358-6.244 10.665 1.124 2.481 2.997 4.961 4.995 6.945 4.121-4.464 5.494-8.681 5.494-11.781 0-3.471-1.248-5.829-4.245-5.829zm-8.367 4.094c1.125-5.581 5.37-8.805 9.615-8.805 4.871 0 9.365 3.224 9.365 9.176 0 3.969-2.248 8.061-4.744 11.407-.875.994-1.998 2.233-3.996 4.342 6.244 5.207 15.858 9.175 21.351 9.424-1.623-3.1-2.122-5.829-2.122-8.308 0-12.277 11.613-18.477 21.353-18.477 9.489 0 14.983 4.216 17.481 8.432 2.746 4.587 3.495 10.293 3.495 18.353 0 8.555 1.375 13.764 2.499 15.995 1.247 2.728 3.745 4.464 6.617 4.464 3.372 0 6.743-2.48 6.743-6.075 0-4.587-1.749-6.571-3.996-8.184-1.124-.745-1.124-1.116-.499-1.984.999-1.116 2.746-2.232 4.994-2.232 4.121 0 8.491 3.719 8.491 9.796 0 9.547-10.115 13.267-17.481 13.267-2.373 0-6.868 2.232-13.736 5.829-7.367 3.845-16.857 7.688-25.097 7.688-14.984 0-23.226-12.772-23.226-19.715 0-7.813 3.871-11.41 10.239-14.013v-.249c-5.119-1.487-12.986-4.464-19.978-10.291-1.374 1.487-3.996 4.091-6.243 6.571 2.371.745 4.744 3.472 4.744 6.572 0 3.968-2.247 6.697-4.744 10.169-3.622 5.084-4.995 8.184-4.995 12.897 0 3.1.999 6.198 3.371 8.184 1.374.742 1.124 2.107-.249 1.982-6.868-.743-14.984-4.711-14.984-15.995 0-2.852.874-5.827 1.373-7.44.25-.993 0-1.613-1.248-1.613-.876 0-2.873.869-3.497 1.613-.5.372-1.249.372-1.249-.744 0-9.424 9.616-15.996 15.61-16.244 3.619-3.225 5.993-5.456 8.864-8.681-6.244-5.704-10.988-14.011-10.988-24.303 0-13.517 9.241-20.585 15.359-20.585 3.746 0 5.119 2.233 5.493 4.713 1.125.743 1.624 1.611 1.874 2.23.499 1.49-.999 1.861-1.373 2.606-.625-1.241-1.874-1.984-4.371-1.984-3.621 0-10.989 3.843-10.989 14.631 0 2.109.126 4.093.624 5.581h.25z" fill="#231F20"/><path d="M230.58 229h18.104c14.508 0 20.336-7.44 20.336-21.328v-6.324c0-12.028-5.58-15.128-9.3-16.616 3.72-1.488 7.688-4.96 7.688-16.616v-3.1c0-12.152-5.456-18.848-19.84-18.848H230.58V229zm12.4-49.104v-23.188h3.968c6.076 0 8.556 2.604 8.556 9.548v3.224c0 8.184-2.232 10.416-9.3 10.416h-3.224zm0 10.292h3.224c8.184 0 10.168 3.472 10.168 11.532v5.58c0 8.06-1.736 11.284-9.176 11.284h-4.216v-28.396zM302.597 179.4h-16.228v-21.328h19.22v-11.904h-31.992V229h31.993v-11.78h-19.221v-26.04h16.228V179.4zM323.433 229h12.772v-70.928h12.392v-11.904h-39.432v11.904h14.268V229z" fill="#231F20"/><path d="M358.941 229h12.772v-70.928h14.392v-11.904h-38.432v11.904h11.268V229zM425.61 229h12.772v-37.076h2.976c7.44 0 8.68 2.356 8.68 12.4 0 6.076-.124 19.716.868 24.676h12.4c-.868-4.96-.744-18.476-.744-25.42 0-11.284-2.852-14.756-7.564-16.988 3.1-1.364 8.432-4.588 8.432-17.36v-3.1c0-14.88-7.44-19.964-20.088-19.964H425.61V229zm12.772-72.292h3.596c7.316 0 8.556 3.844 8.556 10.292v2.852c0 9.052-2.48 11.532-9.176 11.532h-2.976v-24.676zM503.34 229c2.48-17.856 6.076-40.3 7.936-57.66h.248c1.86 16.988 5.084 39.06 7.44 57.66h13.02l12.152-82.832H531.24c-1.86 18.724-4.34 44.268-5.332 60.388h-.248c-1.612-18.228-5.084-41.664-7.564-60.388h-12.4c-2.356 18.104-5.828 43.524-7.688 61.008h-.248c-.62-15.624-3.224-43.152-5.084-61.008h-13.64L490.444 229h12.896zM585.19 229h18.104c14.508 0 20.336-7.44 20.336-21.328v-6.324c0-12.028-5.58-15.128-9.3-16.616 3.72-1.488 7.688-4.96 7.688-16.616v-3.1c0-12.152-5.456-18.848-19.84-18.848H585.19V229zm12.4-49.104v-23.188h3.968c6.076 0 8.556 2.604 8.556 9.548v3.224c0 8.184-2.232 10.416-9.3 10.416h-3.224zm0 10.292h3.224c8.184 0 10.168 3.472 10.168 11.532v5.58c0 8.06-1.736 11.284-9.176 11.284h-4.216v-28.396zM652.129 229h12.772v-70.928h13.392v-11.904h-39.432v11.904h13.268V229zM708.869 229v-27.9c0-1.736.124-2.604.248-3.1l15.872-51.832h-13.64c-3.1 13.268-6.82 28.148-8.432 37.944h-.124c-1.364-9.052-5.084-24.552-8.432-37.944h-14.136l15.5 50.716c.248 1.116.372 1.736.372 2.728V229h12.772zM727.063 229h12.772v-34.1h4.96c15.748 0 20.584-9.052 20.584-22.692v-4.836c0-14.756-6.696-21.204-19.84-21.204h-18.476V229zm12.772-72.292h4.712c7.068 0 8.184 4.96 8.184 11.036v3.968c0 8.184-1.364 12.772-9.424 12.772h-3.472v-27.776zM799.474 179.4h-17.228v-21.328h19.22v-11.904h-31.992V229h32.24l1.612-11.78h-21.08v-26.04h17.228V179.4zM418.597 179.4h-16.228v-21.328h19.22v-11.904h-31.992V229H421.5v-11.78h-19.131v-26.04h16.228V179.4zM576.92 179.4h-16.228v-21.328h19.22v-11.904H547.92V229h31.903v-11.78h-19.131v-26.04h16.228V179.4z" fill="#231F20"/></svg>