<svg width="500" height="500" fill="none" xmlns="http://www.w3.org/2000/svg"><path fill-rule="evenodd" clip-rule="evenodd" d="M170.833 177.492c-7.687 0-16.704 6.32-16.704 28.59 3.007 6.65 8.017 13.301 13.361 18.618 11.026-11.968 14.697-23.271 14.697-31.582 0-9.306-3.338-15.626-11.354-15.626zm-22.385 10.973c3.009-14.96 14.367-23.603 25.722-23.603 13.031 0 25.054 8.643 25.054 24.598 0 10.64-6.013 21.61-12.692 30.582-2.339 2.663-5.345 5.985-10.689 11.639 16.703 13.961 42.422 24.598 57.119 25.264-4.341-8.311-5.679-15.626-5.679-22.272 0-32.914 31.068-49.535 57.124-49.535 25.388 0 40.085 11.303 46.767 22.606 7.347 12.298 9.351 27.594 9.351 49.201 0 22.936 3.676 36.901 6.683 42.88 3.338 7.315 10.021 11.968 17.703 11.968 9.02 0 18.038-6.65 18.038-16.286 0-12.297-4.677-17.617-10.69-21.941-3.006-1.996-3.007-2.992-1.334-5.318 2.671-2.992 7.347-5.984 13.361-5.984 11.024 0 22.714 9.972 22.714 26.263 0 25.594-27.059 35.566-46.766 35.566-6.347 0-18.372 5.985-36.747 15.626-19.707 10.309-45.094 20.61-67.14 20.61-40.085 0-62.133-34.238-62.133-52.853 0-20.945 10.355-30.587 27.392-37.566v-.666c-13.695-3.988-34.741-11.969-53.447-27.59-3.675 3.988-10.689 10.968-16.702 17.617 6.345 1.996 12.692 9.307 12.692 17.618 0 10.638-6.012 17.954-12.692 27.26-9.689 13.63-13.362 21.942-13.362 34.575 0 8.311 2.672 16.617 9.018 21.942 3.675 1.989 3.007 5.648-.667 5.312-18.372-1.99-40.085-12.629-40.085-42.881 0-7.645 2.338-15.621 3.673-19.943.669-2.662 0-4.325-3.338-4.325-2.342 0-7.686 2.328-9.355 4.325-1.335.995-3.341.995-3.341-1.997 0-25.263 25.724-42.881 41.758-43.546 9.685-8.647 16.034-14.626 23.716-23.272-16.704-15.292-29.396-37.563-29.396-65.153 0-36.237 24.721-55.186 41.087-55.186 10.022 0 13.696 5.985 14.698 12.635 3.007 1.991 4.342 4.318 5.011 5.979 1.337 3.993-2.672 4.989-3.673 6.986-1.672-3.327-5.014-5.319-11.693-5.319-9.686 0-29.397 10.301-29.397 39.224 0 5.654.335 10.972 1.67 14.96h.667z" fill="#231F20"/></svg>